<svg width="1280" height="720" viewBox="0 0 1280 720" fill="none" xmlns="http://www.w3.org/2000/svg">
<rect width="1280" height="720" fill="#64B5F6"/>
<path d="M393.128 219.192V241.56H417.512V248.76H393.128V271.8H420.392V279H384.392V211.992H420.392V219.192H393.128ZM430.347 252.504C430.347 247.128 431.435 242.424 433.611 238.392C435.787 234.296 438.763 231.128 442.539 228.888C446.379 226.648 450.667 225.528 455.403 225.528C459.499 225.528 463.307 226.488 466.827 228.408C470.347 230.264 473.035 232.728 474.891 235.8V207.96H483.723V279H474.891V269.112C473.163 272.248 470.603 274.84 467.211 276.888C463.819 278.872 459.851 279.864 455.307 279.864C450.635 279.864 446.379 278.712 442.539 276.408C438.763 274.104 435.787 270.872 433.611 266.712C431.435 262.552 430.347 257.816 430.347 252.504ZM474.891 252.6C474.891 248.632 474.091 245.176 472.491 242.232C470.891 239.288 468.715 237.048 465.963 235.512C463.275 233.912 460.299 233.112 457.035 233.112C453.771 233.112 450.795 233.88 448.107 235.416C445.419 236.952 443.275 239.192 441.675 242.136C440.075 245.08 439.275 248.536 439.275 252.504C439.275 256.536 440.075 260.056 441.675 263.064C443.275 266.008 445.419 268.28 448.107 269.88C450.795 271.416 453.771 272.184 457.035 272.184C460.299 272.184 463.275 271.416 465.963 269.88C468.715 268.28 470.891 266.008 472.491 263.064C474.091 260.056 474.891 256.568 474.891 252.6ZM545.142 226.392V279H536.406V271.224C534.742 273.912 532.406 276.024 529.398 277.56C526.454 279.032 523.19 279.768 519.606 279.768C515.51 279.768 511.83 278.936 508.566 277.272C505.302 275.544 502.71 272.984 500.79 269.592C498.934 266.2 498.006 262.072 498.006 257.208V226.392H506.646V256.056C506.646 261.24 507.958 265.24 510.582 268.056C513.206 270.808 516.79 272.184 521.334 272.184C526.006 272.184 529.686 270.744 532.374 267.864C535.062 264.984 536.406 260.792 536.406 255.288V226.392H545.142ZM581.108 279.672C576.692 279.672 572.724 278.904 569.204 277.368C565.748 275.768 563.028 273.592 561.044 270.84C559.06 268.024 558.036 264.792 557.972 261.144H567.284C567.604 264.28 568.884 266.936 571.124 269.112C573.428 271.224 576.756 272.28 581.108 272.28C585.268 272.28 588.532 271.256 590.9 269.208C593.332 267.096 594.548 264.408 594.548 261.144C594.548 258.584 593.844 256.504 592.436 254.904C591.028 253.304 589.268 252.088 587.156 251.256C585.044 250.424 582.196 249.528 578.612 248.568C574.196 247.416 570.644 246.264 567.956 245.112C565.332 243.96 563.06 242.168 561.14 239.736C559.284 237.24 558.356 233.912 558.356 229.752C558.356 226.104 559.284 222.872 561.14 220.056C562.996 217.24 565.588 215.064 568.916 213.528C572.308 211.992 576.18 211.224 580.532 211.224C586.804 211.224 591.924 212.792 595.892 215.928C599.924 219.064 602.196 223.224 602.708 228.408H593.108C592.788 225.848 591.444 223.608 589.076 221.688C586.708 219.704 583.572 218.712 579.668 218.712C576.02 218.712 573.044 219.672 570.74 221.592C568.436 223.448 567.284 226.072 567.284 229.464C567.284 231.896 567.956 233.88 569.3 235.416C570.708 236.952 572.404 238.136 574.388 238.968C576.436 239.736 579.284 240.632 582.932 241.656C587.348 242.872 590.9 244.088 593.588 245.304C596.276 246.456 598.58 248.28 600.5 250.776C602.42 253.208 603.38 256.536 603.38 260.76C603.38 264.024 602.516 267.096 600.788 269.976C599.06 272.856 596.5 275.192 593.108 276.984C589.716 278.776 585.716 279.672 581.108 279.672ZM626.892 233.592V264.6C626.892 267.16 627.436 268.984 628.524 270.072C629.612 271.096 631.5 271.608 634.188 271.608H640.62V279H632.748C627.884 279 624.236 277.88 621.804 275.64C619.372 273.4 618.156 269.72 618.156 264.6V233.592H611.34V226.392H618.156V213.144H626.892V226.392H640.62V233.592H626.892ZM659.941 234.936C661.477 231.928 663.653 229.592 666.469 227.928C669.349 226.264 672.837 225.432 676.933 225.432V234.456H674.629C664.837 234.456 659.941 239.768 659.941 250.392V279H651.205V226.392H659.941V234.936ZM735.017 250.68C735.017 252.344 734.921 254.104 734.729 255.96H692.681C693.001 261.144 694.761 265.208 697.961 268.152C701.225 271.032 705.161 272.472 709.769 272.472C713.545 272.472 716.681 271.608 719.177 269.88C721.737 268.088 723.529 265.72 724.553 262.776H733.961C732.553 267.832 729.737 271.96 725.513 275.16C721.289 278.296 716.041 279.864 709.769 279.864C704.777 279.864 700.297 278.744 696.329 276.504C692.425 274.264 689.353 271.096 687.113 267C684.873 262.84 683.753 258.04 683.753 252.6C683.753 247.16 684.841 242.392 687.017 238.296C689.193 234.2 692.233 231.064 696.137 228.888C700.105 226.648 704.649 225.528 709.769 225.528C714.761 225.528 719.177 226.616 723.017 228.792C726.857 230.968 729.801 233.976 731.849 237.816C733.961 241.592 735.017 245.88 735.017 250.68ZM725.993 248.856C725.993 245.528 725.257 242.68 723.785 240.312C722.313 237.88 720.297 236.056 717.737 234.84C715.241 233.56 712.457 232.92 709.385 232.92C704.969 232.92 701.193 234.328 698.057 237.144C694.985 239.96 693.225 243.864 692.777 248.856H725.993ZM743.284 252.504C743.284 247.128 744.372 242.424 746.548 238.392C748.724 234.296 751.7 231.128 755.476 228.888C759.316 226.648 763.572 225.528 768.244 225.528C772.852 225.528 776.852 226.52 780.244 228.504C783.636 230.488 786.164 232.984 787.828 235.992V226.392H796.66V279H787.828V269.208C786.1 272.28 783.508 274.84 780.052 276.888C776.66 278.872 772.692 279.864 768.148 279.864C763.476 279.864 759.252 278.712 755.476 276.408C751.7 274.104 748.724 270.872 746.548 266.712C744.372 262.552 743.284 257.816 743.284 252.504ZM787.828 252.6C787.828 248.632 787.028 245.176 785.428 242.232C783.828 239.288 781.652 237.048 778.9 235.512C776.212 233.912 773.236 233.112 769.972 233.112C766.708 233.112 763.732 233.88 761.044 235.416C758.356 236.952 756.212 239.192 754.612 242.136C753.012 245.08 752.212 248.536 752.212 252.504C752.212 256.536 753.012 260.056 754.612 263.064C756.212 266.008 758.356 268.28 761.044 269.88C763.732 271.416 766.708 272.184 769.972 272.184C773.236 272.184 776.212 271.416 778.9 269.88C781.652 268.28 783.828 266.008 785.428 263.064C787.028 260.056 787.828 256.568 787.828 252.6ZM874.687 225.432C878.783 225.432 882.431 226.296 885.631 228.024C888.831 229.688 891.359 232.216 893.215 235.608C895.071 239 895.999 243.128 895.999 247.992V279H887.359V249.24C887.359 243.992 886.047 239.992 883.423 237.24C880.863 234.424 877.375 233.016 872.959 233.016C868.415 233.016 864.799 234.488 862.111 237.432C859.423 240.312 858.079 244.504 858.079 250.008V279H849.439V249.24C849.439 243.992 848.127 239.992 845.503 237.24C842.943 234.424 839.455 233.016 835.039 233.016C830.495 233.016 826.879 234.488 824.191 237.432C821.503 240.312 820.159 244.504 820.159 250.008V279H811.423V226.392H820.159V233.976C821.887 231.224 824.191 229.112 827.071 227.64C830.015 226.168 833.247 225.432 836.767 225.432C841.183 225.432 845.087 226.424 848.479 228.408C851.871 230.392 854.399 233.304 856.063 237.144C857.535 233.432 859.967 230.552 863.359 228.504C866.751 226.456 870.527 225.432 874.687 225.432Z" fill="white"/>
<circle cx="640" cy="438.5" r="103.5" stroke="white" stroke-width="8"/>
<path d="M690.5 438L615.5 481.301L615.5 394.699L690.5 438Z" fill="white"/>
</svg>
